<svg width="54" height="20" viewBox="0 0 54 20" fill="none" xmlns="http://www.w3.org/2000/svg">
<g clip-path="url(#clip0_1_75)">
<path d="M5.21263 16.16C4.34863 16.16 3.58063 15.9787 2.90863 15.616C2.24729 15.2427 1.72463 14.736 1.34063 14.096C0.967292 13.456 0.780625 12.72 0.780625 11.888C0.780625 11.2267 0.887292 10.624 1.10063 10.08C1.31396 9.536 1.60729 9.06667 1.98063 8.672C2.36463 8.26667 2.81796 7.95733 3.34063 7.744C3.87396 7.52 4.44996 7.408 5.06863 7.408C5.61263 7.408 6.11929 7.51467 6.58863 7.728C7.05796 7.93067 7.46329 8.21333 7.80463 8.576C8.15663 8.93867 8.42329 9.37067 8.60463 9.872C8.79663 10.3627 8.88729 10.9013 8.87663 11.488L8.86063 12.192H1.99663L1.62863 10.88H7.43663L7.19663 11.152V10.768C7.16463 10.416 7.04729 10.1013 6.84463 9.824C6.64196 9.54667 6.38596 9.328 6.07663 9.168C5.76729 9.008 5.43129 8.928 5.06863 8.928C4.49263 8.928 4.00729 9.04 3.61263 9.264C3.21796 9.47733 2.91929 9.79733 2.71663 10.224C2.51396 10.64 2.41263 11.1573 2.41263 11.776C2.41263 12.3627 2.53529 12.8747 2.78063 13.312C3.02596 13.7387 3.37263 14.0693 3.82063 14.304C4.26863 14.5387 4.78596 14.656 5.37263 14.656C5.78863 14.656 6.17263 14.5867 6.52463 14.448C6.88729 14.3093 7.27663 14.0587 7.69263 13.696L8.52463 14.864C8.26863 15.12 7.95396 15.344 7.58063 15.536C7.21796 15.728 6.82863 15.8827 6.41263 16C6.00729 16.1067 5.60729 16.16 5.21263 16.16ZM14.2356 16.16C13.457 16.16 12.7583 15.968 12.1396 15.584C11.5316 15.2 11.0463 14.6773 10.6836 14.016C10.3316 13.3547 10.1556 12.6133 10.1556 11.792C10.1556 10.9707 10.3316 10.2293 10.6836 9.568C11.0463 8.90667 11.5316 8.384 12.1396 8C12.7583 7.616 13.457 7.424 14.2356 7.424C14.9823 7.424 15.6596 7.57867 16.2676 7.888C16.8863 8.18667 17.3556 8.59733 17.6756 9.12L16.7636 10.24C16.593 9.99467 16.3743 9.77067 16.1076 9.568C15.841 9.36533 15.5583 9.20533 15.2596 9.088C14.961 8.97067 14.673 8.912 14.3956 8.912C13.8836 8.912 13.425 9.04 13.0196 9.296C12.625 9.54133 12.3103 9.88267 12.0756 10.32C11.841 10.7573 11.7236 11.248 11.7236 11.792C11.7236 12.336 11.8463 12.8267 12.0916 13.264C12.337 13.6907 12.6623 14.032 13.0676 14.288C13.473 14.544 13.921 14.672 14.4116 14.672C14.6996 14.672 14.977 14.624 15.2436 14.528C15.521 14.432 15.7876 14.288 16.0436 14.096C16.2996 13.904 16.5396 13.6693 16.7636 13.392L17.6756 14.512C17.3343 14.992 16.8436 15.3867 16.2036 15.696C15.5743 16.0053 14.9183 16.16 14.2356 16.16ZM19.2301 16V4.16H20.8781V9.328L20.5901 9.52C20.6968 9.14667 20.9048 8.80533 21.2141 8.496C21.5235 8.176 21.8915 7.92 22.3181 7.728C22.7448 7.52533 23.1821 7.424 23.6301 7.424C24.2701 7.424 24.8035 7.552 25.2301 7.808C25.6568 8.05333 25.9768 8.432 26.1901 8.944C26.4035 9.456 26.5101 10.1013 26.5101 10.88V16H24.8621V10.992C24.8621 10.512 24.7981 10.1173 24.6701 9.808C24.5421 9.488 24.3448 9.25867 24.0781 9.12C23.8115 8.97067 23.4808 8.90667 23.0861 8.928C22.7661 8.928 22.4728 8.98133 22.2061 9.088C21.9395 9.184 21.7048 9.32267 21.5021 9.504C21.3101 9.68533 21.1555 9.89867 21.0381 10.144C20.9315 10.3787 20.8781 10.6347 20.8781 10.912V16H20.0621C19.9235 16 19.7848 16 19.6461 16C19.5075 16 19.3688 16 19.2301 16ZM32.5218 16.16C31.7004 16.16 30.9644 15.9733 30.3138 15.6C29.6738 15.216 29.1671 14.6987 28.7938 14.048C28.4204 13.3867 28.2338 12.6347 28.2338 11.792C28.2338 10.9493 28.4204 10.2027 28.7938 9.552C29.1671 8.89067 29.6738 8.37333 30.3138 8C30.9644 7.616 31.7004 7.424 32.5218 7.424C33.3324 7.424 34.0578 7.616 34.6978 8C35.3484 8.37333 35.8604 8.89067 36.2338 9.552C36.6071 10.2027 36.7938 10.9493 36.7938 11.792C36.7938 12.6347 36.6071 13.3867 36.2338 14.048C35.8604 14.6987 35.3484 15.216 34.6978 15.6C34.0578 15.9733 33.3324 16.16 32.5218 16.16ZM32.5218 14.656C33.0231 14.656 33.4711 14.5333 33.8658 14.288C34.2604 14.032 34.5698 13.6907 34.7938 13.264C35.0178 12.8267 35.1244 12.336 35.1138 11.792C35.1244 11.2373 35.0178 10.7467 34.7938 10.32C34.5698 9.88267 34.2604 9.54133 33.8658 9.296C33.4711 9.05067 33.0231 8.928 32.5218 8.928C32.0204 8.928 31.5671 9.056 31.1618 9.312C30.7671 9.55733 30.4578 9.89867 30.2338 10.336C30.0098 10.7627 29.9031 11.248 29.9138 11.792C29.9031 12.336 30.0098 12.8267 30.2338 13.264C30.4578 13.6907 30.7671 14.032 31.1618 14.288C31.5671 14.5333 32.0204 14.656 32.5218 14.656Z" fill="black"/>
<path d="M38.7175 16V7.504H41.2775V16H38.7175ZM39.9975 5.824C39.5175 5.824 39.1388 5.712 38.8615 5.488C38.5948 5.25333 38.4615 4.92267 38.4615 4.496C38.4615 4.112 38.6002 3.79733 38.8775 3.552C39.1548 3.30667 39.5282 3.184 39.9975 3.184C40.4775 3.184 40.8508 3.30133 41.1175 3.536C41.3842 3.76 41.5175 4.08 41.5175 4.496C41.5175 4.89067 41.3788 5.21067 41.1015 5.456C40.8348 5.70133 40.4668 5.824 39.9975 5.824ZM44.3869 16V5.36H46.9469V16H44.3869ZM42.8829 9.744V7.504H48.5949V9.744H42.8829ZM50.5859 11.92C50.5005 11.2693 50.4152 10.5973 50.3299 9.904C50.2445 9.21067 50.1752 8.52267 50.1219 7.84C50.0685 7.15733 50.0419 6.50133 50.0419 5.872V4.624H52.7459V5.872C52.7459 6.512 52.7192 7.17867 52.6659 7.872C52.6125 8.56533 52.5432 9.25867 52.4579 9.952C52.3725 10.6347 52.2819 11.2907 52.1859 11.92H50.5859ZM51.3859 16.176C50.9485 16.176 50.6072 16.0533 50.3619 15.808C50.1165 15.5627 49.9939 15.2107 49.9939 14.752C49.9939 14.3253 50.1219 13.9787 50.3779 13.712C50.6339 13.4453 50.9699 13.312 51.3859 13.312C51.8232 13.312 52.1592 13.44 52.3939 13.696C52.6392 13.9413 52.7619 14.2933 52.7619 14.752C52.7619 15.168 52.6339 15.5093 52.3779 15.776C52.1219 16.0427 51.7912 16.176 51.3859 16.176Z" fill="#3066BE"/>
</g>
<defs>
<clipPath id="clip0_1_75">
<rect width="54" height="20" fill="white"/>
</clipPath>
</defs>
</svg>
